<svg width="2000" height="2000" version="1.1" xmlns="http://www.w3.org/2000/svg" desc="Created with imagetracer.js version 1.2.6" ><path fill="rgb(0,0,0)" stroke="rgb(0,0,0)" stroke-width="1" opacity="0" d="M 0 0 L 2000 0 L 2000 2000 L 0 2000 L 0 0 Z M 594 463 L 593 464 L 580 465 L 557 472 Q 540 479 527 490 Q 500 512 487 548 L 357 905 L 353 917 L 349 940 L 349 961 L 350 962 L 351 975 L 355 990 Q 363 1012 377 1029 L 402 1052 L 926 1506 Q 939 1518 956 1526 L 972 1532 L 997 1537 L 1019 1537 L 1041 1533 Q 1068 1525 1088 1508 L 1607 1048 Q 1624 1033 1636 1013 L 1645 993 L 1649 978 L 1650 965 L 1651 964 L 1650 935 L 1647 920 L 1642 905 L 1512 544 Q 1504 521 1489 505 Q 1474 487 1453 476 L 1430 467 L 1408 463 L 594 463 Z " /><path fill="rgb(0,0,0)" stroke="rgb(0,0,0)" stroke-width="1" opacity="0" d="M 639.5 572 L 1360.5 572 Q 1395.6 578.9 1414 602.5 L 1426 622.5 L 1436 649.5 L 1495 813.5 L 1498 825.5 Q 1496.5 833 1499 836.5 L 1498 837.5 L 1498 847.5 L 1491 868.5 L 1474.5 889 L 1130 1108.5 L 1350 1109.5 L 1042.5 1382 Q 1032.7 1390.2 1018.5 1394 L 1007.5 1396 L 997.5 1396 L 977.5 1391 L 963.5 1383 L 650 1109.5 Q 649.3 1107.3 651.5 1108 L 1143 808.5 L 507 808 L 575 620.5 Q 583.3 602.8 597.5 591 Q 613.6 576.6 639.5 572 Z " /><path fill="rgb(255,255,255)" stroke="rgb(255,255,255)" stroke-width="1" opacity="0.44313725490196076" d="M 593.5 463 L 1408 463.5 L 593.5 464 L 593.5 463 Z " /><path fill="rgb(255,255,255)" stroke="rgb(255,255,255)" stroke-width="1" opacity="0.44313725490196076" d="M 584.5 464 L 591 464.5 L 584.5 465 L 584.5 464 Z " /><path fill="rgb(255,255,255)" stroke="rgb(255,255,255)" stroke-width="1" opacity="0.44313725490196076" d="M 1410.5 464 L 1416 464.5 L 1410.5 465 L 1410.5 464 Z " /><path fill="rgb(255,255,255)" stroke="rgb(255,255,255)" stroke-width="1" opacity="0.44313725490196076" d="M 579.5 465 L 583 465.5 L 579.5 466 L 579.5 465 Z " /><path fill="rgb(255,255,255)" stroke="rgb(255,255,255)" stroke-width="1" opacity="0.44313725490196076" d="M 1417.5 465 L 1421 465.5 L 1417.5 466 L 1417.5 465 Z " /><path fill="rgb(255,255,255)" stroke="rgb(255,255,255)" stroke-width="1" opacity="0.44313725490196076" d="M 575.5 466 L 578 466.5 L 575.5 467 L 575.5 466 Z " /><path fill="rgb(255,255,255)" stroke="rgb(255,255,255)" stroke-width="1" opacity="0.44313725490196076" d="M 1422.5 466 L 1433 468.5 L 1430.5 469 L 1422.5 467 L 1422.5 466 Z " /><path fill="rgb(255,255,255)" stroke="rgb(255,255,255)" stroke-width="1" opacity="0.44313725490196076" d="M 571.5 467 L 574 467.5 L 571.5 468 L 571.5 467 Z " /><path fill="rgb(255,255,255)" stroke="rgb(255,255,255)" stroke-width="1" opacity="0.44313725490196076" d="M 567.5 468 L 570 468.5 L 562.5 471 L 562.5 470 L 567.5 468 Z " /><path fill="rgb(255,255,255)" stroke="rgb(255,255,255)" stroke-width="1" opacity="0.44313725490196076" d="M 1434.5 469 L 1448 474.5 L 1446.5 475 L 1434.5 470 L 1434.5 469 Z " /><path fill="rgb(255,255,255)" stroke="rgb(255,255,255)" stroke-width="1" opacity="0.44313725490196076" d="M 559.5 471 L 561 471.5 Q 530.2 483.2 511 506.5 Q 498.9 520.4 491.5 539 L 491 537.5 Q 503.5 508.5 526.5 490 Q 540.7 478.2 559.5 471 Z " /><path fill="rgb(255,255,255)" stroke="rgb(255,255,255)" stroke-width="1" opacity="0.44313725490196076" d="M 1449.5 475 Q 1473 486 1489 504.5 Q 1505.7 523.3 1514 550.5 L 1513 550.5 Q 1502.8 516.7 1479.5 496 Q 1466.6 483.9 1449.5 476 L 1449.5 475 Z " /><path fill="rgb(255,255,255)" stroke="rgb(255,255,255)" stroke-width="1" opacity="0.44313725490196076" d="M 490.5 540 L 491 541.5 L 489.5 544 L 489 542.5 L 490.5 540 Z " /><path fill="rgb(255,255,255)" stroke="rgb(255,255,255)" stroke-width="1" opacity="0.44313725490196076" d="M 488.5 545 L 489 546.5 L 485.5 555 L 485 553.5 L 488.5 545 Z " /><path fill="rgb(255,255,255)" stroke="rgb(255,255,255)" stroke-width="1" opacity="0.44313725490196076" d="M 1514.5 552 L 1518 561.5 L 1517 561.5 L 1514.5 552 Z " /><path fill="rgb(255,255,255)" stroke="rgb(255,255,255)" stroke-width="1" opacity="0.44313725490196076" d="M 484.5 556 L 485 557.5 L 481.5 566 L 481 564.5 L 484.5 556 Z " /><path fill="rgb(255,255,255)" stroke="rgb(255,255,255)" stroke-width="1" opacity="0.44313725490196076" d="M 1519.5 566 L 1523 575.5 L 1522 575.5 L 1519.5 566 Z " /><path fill="rgb(255,255,255)" stroke="rgb(255,255,255)" stroke-width="1" opacity="0.44313725490196076" d="M 480.5 567 L 481 568.5 L 477.5 577 L 477 575.5 L 480.5 567 Z " /><path fill="rgb(255,255,255)" stroke="rgb(255,255,255)" stroke-width="1" opacity="0.44313725490196076" d="M 641.5 571 L 1359 571.5 L 641.5 572 L 641.5 571 Z " /><path fill="rgb(255,255,255)" stroke="rgb(255,255,255)" stroke-width="1" opacity="0.44313725490196076" d="M 635.5 572 L 639 572.5 L 635.5 573 L 635.5 572 Z " /><path fill="rgb(255,255,255)" stroke="rgb(255,255,255)" stroke-width="1" opacity="0.44313725490196076" d="M 1361.5 572 L 1366 572.5 L 1361.5 573 L 1361.5 572 Z " /><path fill="rgb(255,255,255)" stroke="rgb(255,255,255)" stroke-width="1" opacity="0.44313725490196076" d="M 631.5 573 L 634 573.5 L 631.5 574 L 631.5 573 Z " /><path fill="rgb(255,255,255)" stroke="rgb(255,255,255)" stroke-width="1" opacity="0.44313725490196076" d="M 1367.5 573 L 1370 573.5 L 1367.5 574 L 1367.5 573 Z " /><path fill="rgb(255,255,255)" stroke="rgb(255,255,255)" stroke-width="1" opacity="0.44313725490196076" d="M 627.5 574 L 630 574.5 L 627.5 575 L 627.5 574 Z " /><path fill="rgb(255,255,255)" stroke="rgb(255,255,255)" stroke-width="1" opacity="0.44313725490196076" d="M 1371.5 574 L 1376 575.5 L 1374.5 576 L 1371.5 575 L 1371.5 574 Z " /><path fill="rgb(255,255,255)" stroke="rgb(255,255,255)" stroke-width="1" opacity="0.44313725490196076" d="M 621.5 576 L 623 576.5 L 619.5 578 L 619.5 577 L 621.5 576 Z " /><path fill="rgb(255,255,255)" stroke="rgb(255,255,255)" stroke-width="1" opacity="0.44313725490196076" d="M 1377.5 576 L 1381 577.5 L 1379.5 578 L 1377.5 576 Z " /><path fill="rgb(255,255,255)" stroke="rgb(255,255,255)" stroke-width="1" opacity="0.44313725490196076" d="M 1523.5 577 L 1527 586.5 L 1526 586.5 L 1523.5 577 Z " /><path fill="rgb(255,255,255)" stroke="rgb(255,255,255)" stroke-width="1" opacity="0.44313725490196076" d="M 476.5 578 L 477 579.5 L 473.5 588 L 473 586.5 L 476.5 578 Z " /><path fill="rgb(255,255,255)" stroke="rgb(255,255,255)" stroke-width="1" opacity="0.44313725490196076" d="M 616.5 578 L 618 578.5 Q 599 586.5 587 601.5 Q 576.8 613.3 571.5 630 L 571 628.5 Q 579.4 604.4 597.5 590 L 616.5 578 Z " /><path fill="rgb(255,255,255)" stroke="rgb(255,255,255)" stroke-width="1" opacity="0.44313725490196076" d="M 1382.5 578 Q 1397.8 583.8 1408 594.5 Q 1421.6 606.9 1428 626.5 L 1427 626.5 Q 1419.3 604.3 1402.5 591 Q 1394.4 583.1 1382.5 579 L 1382.5 578 Z " /><path fill="rgb(255,255,255)" stroke="rgb(255,255,255)" stroke-width="1" opacity="0.44313725490196076" d="M 472.5 589 L 473 590.5 L 469.5 599 L 469 597.5 L 472.5 589 Z " /><path fill="rgb(255,255,255)" stroke="rgb(255,255,255)" stroke-width="1" opacity="0.44313725490196076" d="M 1528.5 591 L 1532 600.5 L 1531 600.5 L 1528.5 591 Z " /><path fill="rgb(255,255,255)" stroke="rgb(255,255,255)" stroke-width="1" opacity="0.44313725490196076" d="M 468.5 600 L 469 601.5 L 466.5 607 L 466 605.5 L 468.5 600 Z " /><path fill="rgb(255,255,255)" stroke="rgb(255,255,255)" stroke-width="1" opacity="0.44313725490196076" d="M 1532.5 602 L 1536 611.5 L 1535 611.5 L 1532.5 602 Z " /><path fill="rgb(255,255,255)" stroke="rgb(255,255,255)" stroke-width="1" opacity="0.44313725490196076" d="M 464.5 611 L 465 612.5 L 462.5 618 L 462 616.5 L 464.5 611 Z " /><path fill="rgb(255,255,255)" stroke="rgb(255,255,255)" stroke-width="1" opacity="0.44313725490196076" d="M 1537.5 616 L 1541 625.5 L 1540 625.5 L 1537.5 616 Z " /><path fill="rgb(255,255,255)" stroke="rgb(255,255,255)" stroke-width="1" opacity="0.44313725490196076" d="M 460.5 622 L 461 623.5 L 458.5 629 L 458 627.5 L 460.5 622 Z " /><path fill="rgb(255,255,255)" stroke="rgb(255,255,255)" stroke-width="1" opacity="0.44313725490196076" d="M 1541.5 627 L 1545 636.5 L 1544 636.5 L 1541.5 627 Z " /><path fill="rgb(255,255,255)" stroke="rgb(255,255,255)" stroke-width="1" opacity="0.44313725490196076" d="M 1428.5 628 L 1432 637.5 L 1431 637.5 L 1428.5 628 Z " /><path fill="rgb(255,255,255)" stroke="rgb(255,255,255)" stroke-width="1" opacity="0.44313725490196076" d="M 457.5 630 L 458 631.5 L 454.5 640 L 454 638.5 L 457.5 630 Z " /><path fill="rgb(255,255,255)" stroke="rgb(255,255,255)" stroke-width="1" opacity="0.44313725490196076" d="M 570.5 631 L 571 632.5 L 567.5 641 L 567 639.5 L 570.5 631 Z " /><path fill="rgb(255,255,255)" stroke="rgb(255,255,255)" stroke-width="1" opacity="0.44313725490196076" d="M 1432.5 639 L 1436 648.5 L 1435 648.5 L 1432.5 639 Z " /><path fill="rgb(255,255,255)" stroke="rgb(255,255,255)" stroke-width="1" opacity="0.44313725490196076" d="M 453.5 641 L 454 642.5 L 450.5 651 L 450 649.5 L 453.5 641 Z " /><path fill="rgb(255,255,255)" stroke="rgb(255,255,255)" stroke-width="1" opacity="0.44313725490196076" d="M 1546.5 641 L 1550 650.5 L 1549 650.5 L 1546.5 641 Z " /><path fill="rgb(255,255,255)" stroke="rgb(255,255,255)" stroke-width="1" opacity="0.44313725490196076" d="M 566.5 642 L 567 643.5 L 563.5 652 L 563 650.5 L 566.5 642 Z " /><path fill="rgb(255,255,255)" stroke="rgb(255,255,255)" stroke-width="1" opacity="0.44313725490196076" d="M 449.5 652 L 450 653.5 L 446.5 662 L 446 660.5 L 449.5 652 Z " /><path fill="rgb(255,255,255)" stroke="rgb(255,255,255)" stroke-width="1" opacity="0.44313725490196076" d="M 1550.5 652 L 1554 661.5 L 1553 661.5 L 1550.5 652 Z " /><path fill="rgb(255,255,255)" stroke="rgb(255,255,255)" stroke-width="1" opacity="0.44313725490196076" d="M 562.5 653 L 563 654.5 L 559.5 663 L 559 661.5 L 562.5 653 Z " /><path fill="rgb(255,255,255)" stroke="rgb(255,255,255)" stroke-width="1" opacity="0.44313725490196076" d="M 1437.5 653 L 1441 662.5 L 1440 662.5 L 1437.5 653 Z " /><path fill="rgb(255,255,255)" stroke="rgb(255,255,255)" stroke-width="1" opacity="0.44313725490196076" d="M 445.5 663 L 446 664.5 L 442.5 673 L 442 671.5 L 445.5 663 Z " /><path fill="rgb(255,255,255)" stroke="rgb(255,255,255)" stroke-width="1" opacity="0.44313725490196076" d="M 558.5 664 L 559 665.5 L 555.5 674 L 555 672.5 L 558.5 664 Z " /><path fill="rgb(255,255,255)" stroke="rgb(255,255,255)" stroke-width="1" opacity="0.44313725490196076" d="M 1441.5 664 L 1445 673.5 L 1444 673.5 L 1441.5 664 Z " /><path fill="rgb(255,255,255)" stroke="rgb(255,255,255)" stroke-width="1" opacity="0.44313725490196076" d="M 1555.5 666 L 1559 675.5 L 1558 675.5 L 1555.5 666 Z " /><path fill="rgb(255,255,255)" stroke="rgb(255,255,255)" stroke-width="1" opacity="0.44313725490196076" d="M 441.5 674 L 442 675.5 L 438.5 684 L 438 682.5 L 441.5 674 Z " /><path fill="rgb(255,255,255)" stroke="rgb(255,255,255)" stroke-width="1" opacity="0.44313725490196076" d="M 554.5 675 L 555 676.5 L 551.5 685 L 551 683.5 L 554.5 675 Z " /><path fill="rgb(255,255,255)" stroke="rgb(255,255,255)" stroke-width="1" opacity="0.44313725490196076" d="M 1559.5 677 L 1563 686.5 L 1562 686.5 L 1559.5 677 Z " /><path fill="rgb(255,255,255)" stroke="rgb(255,255,255)" stroke-width="1" opacity="0.44313725490196076" d="M 1446.5 678 L 1450 687.5 L 1449 687.5 L 1446.5 678 Z " /><path fill="rgb(255,255,255)" stroke="rgb(255,255,255)" stroke-width="1" opacity="0.44313725490196076" d="M 437.5 685 L 438 686.5 L 434.5 695 L 434 693.5 L 437.5 685 Z " /><path fill="rgb(255,255,255)" stroke="rgb(255,255,255)" stroke-width="1" opacity="0.44313725490196076" d="M 550.5 686 L 551 687.5 L 547.5 696 L 547 694.5 L 550.5 686 Z " /><path fill="rgb(255,255,255)" stroke="rgb(255,255,255)" stroke-width="1" opacity="0.44313725490196076" d="M 1450.5 689 L 1454 698.5 L 1453 698.5 L 1450.5 689 Z " /><path fill="rgb(255,255,255)" stroke="rgb(255,255,255)" stroke-width="1" opacity="0.44313725490196076" d="M 1564.5 691 L 1568 700.5 L 1567 700.5 L 1564.5 691 Z " /><path fill="rgb(255,255,255)" stroke="rgb(255,255,255)" stroke-width="1" opacity="0.44313725490196076" d="M 433.5 696 L 434 697.5 L 430.5 706 L 430 704.5 L 433.5 696 Z " /><path fill="rgb(255,255,255)" stroke="rgb(255,255,255)" stroke-width="1" opacity="0.44313725490196076" d="M 546.5 697 L 547 698.5 L 544.5 704 L 544 702.5 L 546.5 697 Z " /><path fill="rgb(255,255,255)" stroke="rgb(255,255,255)" stroke-width="1" opacity="0.44313725490196076" d="M 1568.5 702 L 1572 711.5 L 1571 711.5 L 1568.5 702 Z " /><path fill="rgb(255,255,255)" stroke="rgb(255,255,255)" stroke-width="1" opacity="0.44313725490196076" d="M 1455.5 703 L 1459 712.5 L 1458 712.5 L 1455.5 703 Z " /><path fill="rgb(255,255,255)" stroke="rgb(255,255,255)" stroke-width="1" opacity="0.44313725490196076" d="M 429.5 707 L 430 708.5 L 426.5 717 L 426 715.5 L 429.5 707 Z " /><path fill="rgb(255,255,255)" stroke="rgb(255,255,255)" stroke-width="1" opacity="0.44313725490196076" d="M 542.5 708 L 543 709.5 L 540.5 715 L 540 713.5 L 542.5 708 Z " /><path fill="rgb(255,255,255)" stroke="rgb(255,255,255)" stroke-width="1" opacity="0.44313725490196076" d="M 1459.5 714 L 1463 723.5 L 1462 723.5 L 1459.5 714 Z " /><path fill="rgb(255,255,255)" stroke="rgb(255,255,255)" stroke-width="1" opacity="0.44313725490196076" d="M 1573.5 716 L 1577 725.5 L 1576 725.5 L 1573.5 716 Z " /><path fill="rgb(255,255,255)" stroke="rgb(255,255,255)" stroke-width="1" opacity="0.44313725490196076" d="M 425.5 718 L 426 719.5 L 422.5 728 L 422 726.5 L 425.5 718 Z " /><path fill="rgb(255,255,255)" stroke="rgb(255,255,255)" stroke-width="1" opacity="0.44313725490196076" d="M 538.5 719 L 539 720.5 L 536.5 726 L 536 724.5 L 538.5 719 Z " /><path fill="rgb(255,255,255)" stroke="rgb(255,255,255)" stroke-width="1" opacity="0.44313725490196076" d="M 535.5 727 L 536 728.5 L 532.5 737 L 532 735.5 L 535.5 727 Z " /><path fill="rgb(255,255,255)" stroke="rgb(255,255,255)" stroke-width="1" opacity="0.44313725490196076" d="M 1577.5 727 L 1582 739.5 L 1581 739.5 L 1577.5 727 Z " /><path fill="rgb(255,255,255)" stroke="rgb(255,255,255)" stroke-width="1" opacity="0.44313725490196076" d="M 1464.5 728 L 1468 737.5 L 1467 737.5 L 1464.5 728 Z " /><path fill="rgb(255,255,255)" stroke="rgb(255,255,255)" stroke-width="1" opacity="0.44313725490196076" d="M 421.5 729 L 422 730.5 L 418.5 739 L 418 737.5 L 421.5 729 Z " /><path fill="rgb(255,255,255)" stroke="rgb(255,255,255)" stroke-width="1" opacity="0.44313725490196076" d="M 531.5 738 L 532 739.5 L 528.5 748 L 528 746.5 L 531.5 738 Z " /><path fill="rgb(255,255,255)" stroke="rgb(255,255,255)" stroke-width="1" opacity="0.44313725490196076" d="M 1468.5 739 L 1472 748.5 L 1471 748.5 L 1468.5 739 Z " /><path fill="rgb(255,255,255)" stroke="rgb(255,255,255)" stroke-width="1" opacity="0.44313725490196076" d="M 417.5 740 L 418 741.5 L 414.5 750 L 414 748.5 L 417.5 740 Z " /><path fill="rgb(255,255,255)" stroke="rgb(255,255,255)" stroke-width="1" opacity="0.44313725490196076" d="M 1582.5 741 L 1586 750.5 L 1585 750.5 L 1582.5 741 Z " /><path fill="rgb(255,255,255)" stroke="rgb(255,255,255)" stroke-width="1" opacity="0.44313725490196076" d="M 527.5 749 L 528 750.5 L 524.5 759 L 524 757.5 L 527.5 749 Z " /><path fill="rgb(255,255,255)" stroke="rgb(255,255,255)" stroke-width="1" opacity="0.44313725490196076" d="M 413.5 751 L 414 752.5 L 410.5 761 L 410 759.5 L 413.5 751 Z " /><path fill="rgb(255,255,255)" stroke="rgb(255,255,255)" stroke-width="1" opacity="0.44313725490196076" d="M 1586.5 752 L 1591 764.5 L 1590 764.5 L 1586.5 752 Z " /><path fill="rgb(255,255,255)" stroke="rgb(255,255,255)" stroke-width="1" opacity="0.44313725490196076" d="M 1473.5 753 L 1477 762.5 L 1476 762.5 L 1473.5 753 Z " /><path fill="rgb(255,255,255)" stroke="rgb(255,255,255)" stroke-width="1" opacity="0.44313725490196076" d="M 523.5 760 L 524 761.5 L 520.5 770 L 520 768.5 L 523.5 760 Z " /><path fill="rgb(255,255,255)" stroke="rgb(255,255,255)" stroke-width="1" opacity="0.44313725490196076" d="M 409.5 762 L 410 763.5 L 406.5 772 L 406 770.5 L 409.5 762 Z " /><path fill="rgb(255,255,255)" stroke="rgb(255,255,255)" stroke-width="1" opacity="0.44313725490196076" d="M 1477.5 764 L 1481 773.5 L 1480 773.5 L 1477.5 764 Z " /><path fill="rgb(255,255,255)" stroke="rgb(255,255,255)" stroke-width="1" opacity="0.44313725490196076" d="M 1591.5 766 L 1595 775.5 L 1594 775.5 L 1591.5 766 Z " /><path fill="rgb(255,255,255)" stroke="rgb(255,255,255)" stroke-width="1" opacity="0.44313725490196076" d="M 519.5 771 L 520 772.5 L 516.5 781 L 516 779.5 L 519.5 771 Z " /><path fill="rgb(255,255,255)" stroke="rgb(255,255,255)" stroke-width="1" opacity="0.44313725490196076" d="M 405.5 773 L 406 774.5 L 402.5 783 L 402 781.5 L 405.5 773 Z " /><path fill="rgb(255,255,255)" stroke="rgb(255,255,255)" stroke-width="1" opacity="0.44313725490196076" d="M 1595.5 777 L 1600 789.5 L 1599 789.5 L 1595.5 777 Z " /><path fill="rgb(255,255,255)" stroke="rgb(255,255,255)" stroke-width="1" opacity="0.44313725490196076" d="M 1482.5 778 L 1486 787.5 L 1485 787.5 L 1482.5 778 Z " /><path fill="rgb(255,255,255)" stroke="rgb(255,255,255)" stroke-width="1" opacity="0.44313725490196076" d="M 515.5 782 L 516 783.5 L 512.5 792 L 512 790.5 L 515.5 782 Z " /><path fill="rgb(255,255,255)" stroke="rgb(255,255,255)" stroke-width="1" opacity="0.44313725490196076" d="M 401.5 784 L 402 785.5 L 398.5 794 L 398 792.5 L 401.5 784 Z " /><path fill="rgb(255,255,255)" stroke="rgb(255,255,255)" stroke-width="1" opacity="0.44313725490196076" d="M 1486.5 789 L 1490 798.5 L 1489 798.5 L 1486.5 789 Z " /><path fill="rgb(255,255,255)" stroke="rgb(255,255,255)" stroke-width="1" opacity="0.44313725490196076" d="M 1600.5 791 L 1604 800.5 L 1603 800.5 L 1600.5 791 Z " /><path fill="rgb(255,255,255)" stroke="rgb(255,255,255)" stroke-width="1" opacity="0.44313725490196076" d="M 511.5 793 L 512 794.5 L 508.5 803 L 508 801.5 L 511.5 793 Z " /><path fill="rgb(255,255,255)" stroke="rgb(255,255,255)" stroke-width="1" opacity="0.44313725490196076" d="M 397.5 795 L 398 796.5 L 394.5 805 L 394 803.5 L 397.5 795 Z " /><path fill="rgb(255,255,255)" stroke="rgb(255,255,255)" stroke-width="1" opacity="0.44313725490196076" d="M 1604.5 802 L 1609 814.5 L 1608 814.5 L 1604.5 802 Z " /><path fill="rgb(255,255,255)" stroke="rgb(255,255,255)" stroke-width="1" opacity="0.44313725490196076" d="M 1491.5 803 L 1495 812.5 L 1494 812.5 L 1491.5 803 Z " /><path fill="rgb(255,255,255)" stroke="rgb(255,255,255)" stroke-width="1" opacity="0.44313725490196076" d="M 507.5 804 L 508 805.5 L 507 808 L 1143 808.5 L 650 1108 L 651.5 1111 L 957.5 1378 Q 969.8 1390.2 990 1394.5 L 986.5 1395 Q 969.7 1390.3 958.5 1380 L 648 1108.5 L 1140 809.5 L 506 809 L 507.5 804 Z " /><path fill="rgb(255,255,255)" stroke="rgb(255,255,255)" stroke-width="1" opacity="0.44313725490196076" d="M 393.5 806 L 394 807.5 L 391.5 813 L 391 811.5 L 393.5 806 Z " /><path fill="rgb(255,255,255)" stroke="rgb(255,255,255)" stroke-width="1" opacity="0.44313725490196076" d="M 1495.5 814 L 1497 819.5 L 1496 819.5 L 1495.5 814 Z " /><path fill="rgb(255,255,255)" stroke="rgb(255,255,255)" stroke-width="1" opacity="0.44313725490196076" d="M 1609.5 816 L 1613 825.5 L 1612 825.5 L 1609.5 816 Z " /><path fill="rgb(255,255,255)" stroke="rgb(255,255,255)" stroke-width="1" opacity="0.44313725490196076" d="M 389.5 817 L 390 818.5 L 387.5 824 L 387 822.5 L 389.5 817 Z " /><path fill="rgb(255,255,255)" stroke="rgb(255,255,255)" stroke-width="1" opacity="0.44313725490196076" d="M 1497.5 821 L 1498 824.5 L 1497 824.5 L 1497.5 821 Z " /><path fill="rgb(255,255,255)" stroke="rgb(255,255,255)" stroke-width="1" opacity="0.44313725490196076" d="M 1498.5 827 L 1499 834.5 L 1498 834.5 L 1498.5 827 Z " /><path fill="rgb(255,255,255)" stroke="rgb(255,255,255)" stroke-width="1" opacity="0.44313725490196076" d="M 1613.5 827 L 1618 839.5 L 1617 839.5 L 1613.5 827 Z " /><path fill="rgb(255,255,255)" stroke="rgb(255,255,255)" stroke-width="1" opacity="0.44313725490196076" d="M 385.5 828 L 386 829.5 L 383.5 835 L 383 833.5 L 385.5 828 Z " /><path fill="rgb(255,255,255)" stroke="rgb(255,255,255)" stroke-width="1" opacity="0.44313725490196076" d="M 382.5 836 L 383 837.5 L 379.5 846 L 379 844.5 L 382.5 836 Z " /><path fill="rgb(255,255,255)" stroke="rgb(255,255,255)" stroke-width="1" opacity="0.44313725490196076" d="M 1498.5 837 L 1499 846.5 L 1498 846.5 L 1498.5 837 Z " /><path fill="rgb(255,255,255)" stroke="rgb(255,255,255)" stroke-width="1" opacity="0.44313725490196076" d="M 1618.5 841 L 1622 850.5 L 1621 850.5 L 1618.5 841 Z " /><path fill="rgb(255,255,255)" stroke="rgb(255,255,255)" stroke-width="1" opacity="0.44313725490196076" d="M 378.5 847 L 379 848.5 L 375.5 857 L 375 855.5 L 378.5 847 Z " /><path fill="rgb(255,255,255)" stroke="rgb(255,255,255)" stroke-width="1" opacity="0.44313725490196076" d="M 1497.5 848 L 1498 850.5 L 1497 850.5 L 1497.5 848 Z " /><path fill="rgb(255,255,255)" stroke="rgb(255,255,255)" stroke-width="1" opacity="0.44313725490196076" d="M 1496.5 852 L 1497 855.5 L 1494.5 861 L 1494 859.5 L 1496.5 852 Z " /><path fill="rgb(255,255,255)" stroke="rgb(255,255,255)" stroke-width="1" opacity="0.44313725490196076" d="M 1622.5 852 L 1627 864.5 L 1626 864.5 L 1622.5 852 Z " /><path fill="rgb(255,255,255)" stroke="rgb(255,255,255)" stroke-width="1" opacity="0.44313725490196076" d="M 374.5 858 L 375 859.5 L 371.5 868 L 371 866.5 L 374.5 858 Z " /><path fill="rgb(255,255,255)" stroke="rgb(255,255,255)" stroke-width="1" opacity="0.44313725490196076" d="M 1493.5 862 L 1494 863.5 Q 1486.9 880.4 1473.5 891 L 1143.5 1101 L 1132 1107 Q 1133.1 1109.7 1130.5 1109 L 1132.5 1106 L 1463.5 897 L 1480 883.5 L 1491 868.5 L 1493.5 862 Z " /><path fill="rgb(255,255,255)" stroke="rgb(255,255,255)" stroke-width="1" opacity="0.44313725490196076" d="M 1627.5 866 L 1631 875.5 L 1630 875.5 L 1627.5 866 Z " /><path fill="rgb(255,255,255)" stroke="rgb(255,255,255)" stroke-width="1" opacity="0.44313725490196076" d="M 370.5 869 L 371 870.5 L 367.5 879 L 367 877.5 L 370.5 869 Z " /><path fill="rgb(255,255,255)" stroke="rgb(255,255,255)" stroke-width="1" opacity="0.44313725490196076" d="M 1631.5 877 L 1636 889.5 L 1635 889.5 L 1631.5 877 Z " /><path fill="rgb(255,255,255)" stroke="rgb(255,255,255)" stroke-width="1" opacity="0.44313725490196076" d="M 366.5 880 L 367 881.5 L 363.5 890 L 363 888.5 L 366.5 880 Z " /><path fill="rgb(255,255,255)" stroke="rgb(255,255,255)" stroke-width="1" opacity="0.44313725490196076" d="M 362.5 891 L 363 892.5 L 359.5 901 L 359 899.5 L 362.5 891 Z " /><path fill="rgb(255,255,255)" stroke="rgb(255,255,255)" stroke-width="1" opacity="0.44313725490196076" d="M 1636.5 891 L 1640 900.5 L 1639 900.5 L 1636.5 891 Z " /><path fill="rgb(255,255,255)" stroke="rgb(255,255,255)" stroke-width="1" opacity="0.44313725490196076" d="M 358.5 902 L 359 903.5 L 353.5 920 L 353 916.5 L 358.5 902 Z " /><path fill="rgb(255,255,255)" stroke="rgb(255,255,255)" stroke-width="1" opacity="0.44313725490196076" d="M 1640.5 902 L 1647 919.5 L 1648 926.5 L 1647 926.5 L 1646 919.5 L 1640.5 902 Z " /><path fill="rgb(255,255,255)" stroke="rgb(255,255,255)" stroke-width="1" opacity="0.44313725490196076" d="M 352.5 921 L 353 923.5 L 352 923.5 L 352.5 921 Z " /><path fill="rgb(255,255,255)" stroke="rgb(255,255,255)" stroke-width="1" opacity="0.44313725490196076" d="M 351.5 925 L 352 928.5 L 351 928.5 L 351.5 925 Z " /><path fill="rgb(255,255,255)" stroke="rgb(255,255,255)" stroke-width="1" opacity="0.44313725490196076" d="M 1648.5 928 L 1649 931.5 L 1648 931.5 L 1648.5 928 Z " /><path fill="rgb(255,255,255)" stroke="rgb(255,255,255)" stroke-width="1" opacity="0.44313725490196076" d="M 350.5 931 L 351 935.5 L 350 935.5 L 350.5 931 Z " /><path fill="rgb(255,255,255)" stroke="rgb(255,255,255)" stroke-width="1" opacity="0.44313725490196076" d="M 1649.5 934 L 1650 938.5 L 1649 938.5 L 1649.5 934 Z " /><path fill="rgb(255,255,255)" stroke="rgb(255,255,255)" stroke-width="1" opacity="0.44313725490196076" d="M 349.5 939 L 350 960.5 L 349 960.5 L 349.5 939 Z " /><path fill="rgb(255,255,255)" stroke="rgb(255,255,255)" stroke-width="1" opacity="0.44313725490196076" d="M 1650.5 942 L 1651 963.5 L 1650 963.5 L 1650.5 942 Z " /><path fill="rgb(255,255,255)" stroke="rgb(255,255,255)" stroke-width="1" opacity="0.44313725490196076" d="M 350.5 964 L 351 968.5 L 350 968.5 L 350.5 964 Z " /><path fill="rgb(255,255,255)" stroke="rgb(255,255,255)" stroke-width="1" opacity="0.44313725490196076" d="M 1649.5 966 L 1650 971.5 L 1649 971.5 L 1649.5 966 Z " /><path fill="rgb(255,255,255)" stroke="rgb(255,255,255)" stroke-width="1" opacity="0.44313725490196076" d="M 351.5 971 L 352 974.5 L 351 974.5 L 351.5 971 Z " /><path fill="rgb(255,255,255)" stroke="rgb(255,255,255)" stroke-width="1" opacity="0.44313725490196076" d="M 1648.5 974 L 1649 977.5 L 1647.5 982 L 1647 978.5 L 1648.5 974 Z " /><path fill="rgb(255,255,255)" stroke="rgb(255,255,255)" stroke-width="1" opacity="0.44313725490196076" d="M 352.5 976 L 353 978.5 L 352 978.5 L 352.5 976 Z " /><path fill="rgb(255,255,255)" stroke="rgb(255,255,255)" stroke-width="1" opacity="0.44313725490196076" d="M 353.5 980 L 354 982.5 L 353 982.5 L 353.5 980 Z " /><path fill="rgb(255,255,255)" stroke="rgb(255,255,255)" stroke-width="1" opacity="0.44313725490196076" d="M 1646.5 983 L 1647 985.5 L 1645.5 989 L 1645 986.5 L 1646.5 983 Z " /><path fill="rgb(255,255,255)" stroke="rgb(255,255,255)" stroke-width="1" opacity="0.44313725490196076" d="M 355.5 987 L 357 991.5 L 356 991.5 L 355.5 987 Z " /><path fill="rgb(255,255,255)" stroke="rgb(255,255,255)" stroke-width="1" opacity="0.44313725490196076" d="M 1644.5 990 L 1645 992.5 L 1641.5 1000 L 1641 998.5 L 1644.5 990 Z " /><path fill="rgb(255,255,255)" stroke="rgb(255,255,255)" stroke-width="1" opacity="0.44313725490196076" d="M 357.5 993 Q 369.4 1023.6 392.5 1043 L 924.5 1504 Q 944.2 1522.8 974 1531.5 L 971.5 1532 Q 944.3 1523.2 925.5 1506 L 401.5 1052 L 377 1028.5 Q 363.5 1013.4 357.5 993 Z " /><path fill="rgb(255,255,255)" stroke="rgb(255,255,255)" stroke-width="1" opacity="0.44313725490196076" d="M 1640.5 1001 L 1641 1002.5 Q 1628.4 1029.9 1606.5 1048 L 1103.5 1494 L 1082.5 1512 L 1068.5 1521 L 1069.5 1519 L 1078.5 1514 L 1096.5 1499 L 1620 1033.5 Q 1632.6 1019.6 1640.5 1001 Z " /><path fill="rgb(255,255,255)" stroke="rgb(255,255,255)" stroke-width="1" opacity="0.44313725490196076" d="M 1350.5 1109 L 1346.5 1114 L 1047.5 1379 Q 1040 1387 1028.5 1391 L 1028.5 1390 L 1035.5 1387 L 1048.5 1377 L 1350.5 1109 Z " /><path fill="rgb(255,255,255)" stroke="rgb(255,255,255)" stroke-width="1" opacity="0.44313725490196076" d="M 1025.5 1391 L 1027 1391.5 L 1019.5 1394 L 1019.5 1393 L 1025.5 1391 Z " /><path fill="rgb(255,255,255)" stroke="rgb(255,255,255)" stroke-width="1" opacity="0.44313725490196076" d="M 1015.5 1394 L 1018 1394.5 L 1015.5 1395 L 1015.5 1394 Z " /><path fill="rgb(255,255,255)" stroke="rgb(255,255,255)" stroke-width="1" opacity="0.44313725490196076" d="M 991.5 1395 L 997 1395.5 L 991.5 1396 L 991.5 1395 Z " /><path fill="rgb(255,255,255)" stroke="rgb(255,255,255)" stroke-width="1" opacity="0.44313725490196076" d="M 1008.5 1395 L 1014 1395.5 L 1008.5 1396 L 1008.5 1395 Z " /><path fill="rgb(255,255,255)" stroke="rgb(255,255,255)" stroke-width="1" opacity="0.44313725490196076" d="M 1066.5 1521 L 1065.5 1523 L 1058.5 1526 L 1058.5 1525 L 1066.5 1521 Z " /><path fill="rgb(255,255,255)" stroke="rgb(255,255,255)" stroke-width="1" opacity="0.44313725490196076" d="M 1055.5 1526 L 1057 1526.5 L 1051.5 1529 L 1051.5 1528 L 1055.5 1526 Z " /><path fill="rgb(255,255,255)" stroke="rgb(255,255,255)" stroke-width="1" opacity="0.44313725490196076" d="M 1044.5 1530 L 1047 1530.5 L 1038.5 1533 L 1038.5 1532 L 1044.5 1530 Z " /><path fill="rgb(255,255,255)" stroke="rgb(255,255,255)" stroke-width="1" opacity="0.44313725490196076" d="M 975.5 1532 L 978 1532.5 L 975.5 1533 L 975.5 1532 Z " /><path fill="rgb(255,255,255)" stroke="rgb(255,255,255)" stroke-width="1" opacity="0.44313725490196076" d="M 979.5 1533 L 982 1533.5 L 979.5 1534 L 979.5 1533 Z " /><path fill="rgb(255,255,255)" stroke="rgb(255,255,255)" stroke-width="1" opacity="0.44313725490196076" d="M 1033.5 1533 L 1037 1533.5 L 1033.5 1534 L 1033.5 1533 Z " /><path fill="rgb(255,255,255)" stroke="rgb(255,255,255)" stroke-width="1" opacity="0.44313725490196076" d="M 983.5 1534 L 987 1534.5 L 983.5 1535 L 983.5 1534 Z " /><path fill="rgb(255,255,255)" stroke="rgb(255,255,255)" stroke-width="1" opacity="0.44313725490196076" d="M 1028.5 1534 L 1032 1534.5 L 1028.5 1535 L 1028.5 1534 Z " /><path fill="rgb(255,255,255)" stroke="rgb(255,255,255)" stroke-width="1" opacity="0.44313725490196076" d="M 989.5 1535 L 995 1535.5 L 989.5 1536 L 989.5 1535 Z " /><path fill="rgb(255,255,255)" stroke="rgb(255,255,255)" stroke-width="1" opacity="0.44313725490196076" d="M 1021.5 1535 L 1027 1535.5 L 1021.5 1536 L 1021.5 1535 Z " /><path fill="rgb(255,255,255)" stroke="rgb(255,255,255)" stroke-width="1" opacity="0.44313725490196076" d="M 996.5 1536 L 1019 1536.5 L 996.5 1537 L 996.5 1536 Z " /><path fill="rgb(255,255,255)" stroke="rgb(255,255,255)" stroke-width="1" opacity="0.996078431372549" d="M 591.5 464 L 1409.5 464 L 1433.5 469 L 1448.5 475 Q 1469.7 485.3 1485 501.5 Q 1501.7 518.8 1511 543.5 L 1640 901.5 L 1649 932.5 Q 1647.5 938 1650 939.5 L 1650 965.5 L 1645 989.5 L 1635 1012.5 Q 1624.3 1031.3 1608.5 1045 L 1088.5 1506 Q 1071.5 1521.5 1047.5 1530 L 1020.5 1536 L 995.5 1536 L 974.5 1532 L 955.5 1525 L 930.5 1509 L 392.5 1043 L 378 1028.5 Q 362.2 1009.8 354 983.5 L 350 963.5 L 350 936.5 L 354 916.5 L 359 901.5 L 489 544.5 Q 501.2 512.2 525.5 492 Q 539 480.5 556.5 473 L 570.5 468 L 591.5 464 Z M 642 571 L 628 574 L 617 578 L 598 590 Q 582 602 574 621 L 506 809 L 1140 810 L 648 1109 L 959 1380 L 978 1392 L 992 1396 L 1002 1396 L 1003 1397 L 1004 1396 L 1014 1396 L 1025 1393 L 1042 1384 L 1347 1114 L 1351 1109 L 1133 1109 L 1132 1107 L 1144 1101 L 1474 891 Q 1485 882 1492 869 L 1499 847 L 1499 828 L 1497 818 L 1434 642 L 1422 613 L 1408 595 Q 1398 584 1384 578 L 1374 574 L 1359 571 L 642 571 Z " /></svg>